# Blender v2.82 (sub 7) OBJ File: 'armario_escolar.blend'
# www.blender.org
mtllib armario_escolar.mtl
o Cube_Cube.001
v -0.500114 -0.486568 0.463258
v -0.500114 1.512723 0.463258
v -0.500114 -0.486568 -0.476936
v -0.500114 1.512723 -0.476936
v 0.500114 -0.486568 0.463258
v 0.500114 1.512723 0.463258
v 0.500114 -0.486568 -0.476936
v 0.500114 1.512723 -0.476936
vt 0.581395 -0.000000
vt 0.581395 1.000000
vt 0.395349 1.000000
vt 0.395349 -0.000000
vt 0.186047 -0.000000
vt 0.186047 1.000000
vt 0.000000 1.000000
vt 0.000000 -0.000000
vt 0.383721 -0.000000
vt 0.383721 1.000000
vt 0.197674 1.000000
vt 0.197674 -0.000000
vt 0.779070 -0.000000
vt 0.779070 1.000000
vt 0.593023 1.000000
vt 0.593023 -0.000000
vt 0.976744 0.500000
vt 0.976744 1.000000
vt 0.790698 1.000000
vt 0.790698 0.500000
vt 0.976744 0.500000
vt 0.976744 1.000000
vt 0.790698 1.000000
vt 0.790698 0.500000
vn -1.0000 0.0000 0.0000
vn 0.0000 0.0000 -1.0000
vn 1.0000 0.0000 0.0000
vn 0.0000 0.0000 1.0000
vn 0.0000 -1.0000 0.0000
vn 0.0000 1.0000 0.0000
usemtl Material.002
s off
f 1/1/1 2/2/1 4/3/1 3/4/1
f 3/5/2 4/6/2 8/7/2 7/8/2
f 7/9/3 8/10/3 6/11/3 5/12/3
f 5/13/4 6/14/4 2/15/4 1/16/4
f 3/17/5 7/18/5 5/19/5 1/20/5
f 8/21/6 4/22/6 2/23/6 6/24/6
