# Blender v2.82 (sub 7) OBJ File: 'bebedouro.blend'
# www.blender.org
mtllib bebedouro.mtl
o Cube_Cube.001
v -0.286556 -0.497128 0.287860
v -0.286556 0.685421 0.287860
v -0.286556 -0.497128 -0.281862
v -0.286556 0.685421 -0.281862
v 0.283166 -0.497128 0.287860
v 0.283166 0.685421 0.287860
v 0.283166 -0.497128 -0.281862
v 0.283166 0.685421 -0.281862
v -0.147413 0.730020 0.246908
v -0.147413 0.861308 0.246908
v -0.147413 0.730020 0.233857
v -0.147413 0.861308 0.233857
v -0.134362 0.730020 0.246908
v -0.134362 0.861308 0.246908
v -0.134362 0.730020 0.233857
v -0.134362 0.861308 0.233857
v -0.147413 0.887850 0.233141
v -0.147413 0.876951 0.225962
v -0.134362 0.876951 0.225962
v -0.134362 0.887850 0.233141
v -0.147413 0.890903 0.203073
v -0.147413 0.877999 0.205020
v -0.134362 0.877999 0.205020
v -0.134362 0.890903 0.203073
v -0.147413 0.875099 0.176351
v -0.147413 0.866969 0.186559
v -0.134362 0.866969 0.186559
v -0.134362 0.875099 0.176351
v -0.147413 0.845797 0.166761
v -0.147413 0.845512 0.179808
v -0.134362 0.845512 0.179808
v -0.134362 0.845797 0.166761
v -0.174129 0.682926 0.252034
v -0.174129 0.710922 0.252034
v -0.174129 0.682926 0.228516
v -0.174129 0.710922 0.228516
v -0.149601 0.682926 0.252034
v -0.149601 0.710922 0.252034
v -0.149601 0.682926 0.228516
v -0.149601 0.710922 0.228516
v -0.169008 0.704756 0.247298
v -0.169008 0.737039 0.247298
v -0.169008 0.704756 0.233252
v -0.169008 0.737039 0.233252
v -0.154962 0.704756 0.247298
v -0.154962 0.737039 0.247298
v -0.154962 0.704756 0.233252
v -0.154962 0.737039 0.233252
v -0.169008 0.747456 0.247298
v -0.169008 0.762440 0.247298
v -0.169008 0.747456 0.233252
v -0.169008 0.762440 0.233252
v -0.154962 0.747456 0.247298
v -0.154962 0.762440 0.247298
v -0.154962 0.747456 0.233252
v -0.154962 0.762440 0.233252
v -0.164526 0.736663 0.242816
v -0.164526 0.747779 0.242816
v -0.164526 0.736663 0.237734
v -0.164526 0.747779 0.237734
v -0.159444 0.736663 0.242816
v -0.159444 0.747779 0.242816
v -0.159444 0.736663 0.237734
v -0.159444 0.747779 0.237734
v -0.241207 0.685421 0.203803
v -0.241207 0.685421 -0.236514
v 0.237818 0.685421 -0.236514
v 0.237818 0.685421 0.203803
v -0.188105 0.649206 0.150701
v -0.188105 0.649206 -0.183411
v 0.184715 0.649206 -0.183411
v 0.184715 0.649206 0.150701
v -0.156144 0.714966 0.250088
v -0.156144 0.731002 0.250088
v -0.156144 0.714966 0.230463
v -0.156144 0.731002 0.230463
v -0.129032 0.714966 0.250088
v -0.129032 0.731002 0.250088
v -0.129032 0.714966 0.230463
v -0.129032 0.731002 0.230463
v 0.159566 0.682926 0.252034
v 0.159566 0.710922 0.252034
v 0.159566 0.682926 0.228516
v 0.159566 0.710922 0.228516
v 0.184094 0.682926 0.252034
v 0.184094 0.710922 0.252034
v 0.184094 0.682926 0.228516
v 0.184094 0.710922 0.228516
v 0.164686 0.704756 0.247298
v 0.164686 0.737039 0.247298
v 0.164686 0.704756 0.233252
v 0.164686 0.737039 0.233252
v 0.178732 0.704756 0.247298
v 0.178732 0.737039 0.247298
v 0.178732 0.704756 0.233252
v 0.178732 0.737039 0.233252
v 0.164686 0.747456 0.247298
v 0.164686 0.762440 0.247298
v 0.164686 0.747456 0.233252
v 0.164686 0.762440 0.233252
v 0.178732 0.747456 0.247298
v 0.178732 0.762440 0.247298
v 0.178732 0.747456 0.233252
v 0.178732 0.762440 0.233252
v 0.169168 0.736663 0.242816
v 0.169168 0.747779 0.242816
v 0.169168 0.736663 0.237734
v 0.169168 0.747779 0.237734
v 0.174250 0.736663 0.242816
v 0.174250 0.747779 0.242816
v 0.174250 0.736663 0.237734
v 0.174250 0.747779 0.237734
v 0.166345 0.718051 0.233989
v 0.166345 0.727916 0.233989
v 0.166345 0.718051 0.208807
v 0.166345 0.727916 0.208807
v 0.176803 0.718051 0.233989
v 0.176803 0.727916 0.233989
v 0.176803 0.718051 0.208807
v 0.176803 0.727916 0.208807
v 0.166800 0.727432 0.219537
v 0.166800 0.737671 0.213157
v 0.166800 0.723772 0.212953
v 0.166800 0.734012 0.206574
v 0.176349 0.727432 0.219537
v 0.176349 0.737671 0.213157
v 0.176349 0.723772 0.212953
v 0.176349 0.734012 0.206574
v -0.286556 0.624802 0.287860
v -0.286556 0.624802 -0.281862
v 0.283166 0.624802 -0.281862
v 0.283166 0.624802 0.287860
vt 0.125000 0.937500
vt 0.125000 0.812500
vt 0.875000 0.812500
vt 0.875000 0.937500
vt 0.125000 0.937500
vt 0.125000 0.812500
vt 0.875000 0.812500
vt 0.875000 0.937500
vt 0.125000 0.937500
vt 0.125000 0.812500
vt 0.875000 0.812500
vt 0.875000 0.937500
vt 0.125000 0.937500
vt 0.125000 0.812500
vt 0.875000 0.812500
vt 0.875000 0.937500
vt 0.625000 0.625000
vt 0.875000 0.625000
vt 0.875000 0.875000
vt 0.625000 0.875000
vt 1.000000 0.000000
vt 1.000000 1.000000
vt 0.937500 0.937500
vt 0.937500 0.062500
vt 1.000000 0.125000
vt 1.000000 0.875000
vt 0.750000 0.875000
vt 0.750000 0.125000
vt 1.000000 0.125000
vt 1.000000 0.875000
vt 0.750000 0.875000
vt 0.750000 0.125000
vt 1.000000 0.125000
vt 1.000000 0.875000
vt 0.750000 0.875000
vt 0.750000 0.125000
vt 1.000000 0.125000
vt 1.000000 0.875000
vt 0.750000 0.875000
vt 0.750000 0.125000
vt 0.750000 0.750000
vt 0.875000 0.750000
vt 0.875000 0.875000
vt 0.750000 0.875000
vt 0.750000 0.125000
vt 1.000000 0.125000
vt 1.000000 0.875000
vt 0.750000 0.875000
vt 0.750000 0.125000
vt 1.000000 0.125000
vt 1.000000 0.875000
vt 0.750000 0.875000
vt 0.750000 0.125000
vt 1.000000 0.125000
vt 1.000000 0.875000
vt 0.750000 0.875000
vt 0.750000 0.125000
vt 1.000000 0.125000
vt 1.000000 0.875000
vt 0.750000 0.875000
vt 0.750000 0.125000
vt 1.000000 0.125000
vt 1.000000 0.875000
vt 0.750000 0.875000
vt 0.750000 0.125000
vt 1.000000 0.125000
vt 1.000000 0.875000
vt 0.750000 0.875000
vt 0.750000 0.125000
vt 1.000000 0.125000
vt 1.000000 0.875000
vt 0.750000 0.875000
vt 0.750000 0.125000
vt 1.000000 0.125000
vt 1.000000 0.875000
vt 0.750000 0.875000
vt 0.750000 0.125000
vt 1.000000 0.125000
vt 1.000000 0.875000
vt 0.750000 0.875000
vt 0.750000 0.125000
vt 1.000000 0.125000
vt 1.000000 0.875000
vt 0.750000 0.875000
vt 0.750000 0.125000
vt 1.000000 0.125000
vt 1.000000 0.875000
vt 0.750000 0.875000
vt 0.750000 0.125000
vt 1.000000 0.125000
vt 1.000000 0.875000
vt 0.750000 0.875000
vt 0.750000 0.125000
vt 1.000000 0.125000
vt 1.000000 0.875000
vt 0.750000 0.875000
vt 0.250000 0.250000
vt 0.437500 0.250000
vt 0.437500 0.437500
vt 0.250000 0.437500
vt 0.750000 0.125000
vt 1.000000 0.125000
vt 1.000000 0.875000
vt 0.750000 0.875000
vt 0.750000 0.125000
vt 1.000000 0.125000
vt 1.000000 0.875000
vt 0.750000 0.875000
vt 0.750000 0.125000
vt 1.000000 0.125000
vt 1.000000 0.875000
vt 0.750000 0.875000
vt 0.750000 0.875000
vt 0.750000 0.125000
vt 1.000000 0.125000
vt 1.000000 0.875000
vt 0.750000 0.875000
vt 0.750000 0.125000
vt 1.000000 0.125000
vt 1.000000 0.875000
vt 0.750000 0.875000
vt 0.750000 0.125000
vt 1.000000 0.125000
vt 1.000000 0.875000
vt 0.750000 0.875000
vt 0.750000 0.125000
vt 1.000000 0.125000
vt 1.000000 0.875000
vt 0.750000 0.125000
vt 1.000000 0.125000
vt 0.750000 0.750000
vt 0.875000 0.750000
vt 0.875000 0.875000
vt 0.750000 0.875000
vt 0.750000 0.875000
vt 0.750000 0.125000
vt 1.000000 0.125000
vt 1.000000 0.875000
vt 0.750000 0.875000
vt 0.750000 0.125000
vt 1.000000 0.125000
vt 1.000000 0.875000
vt 0.750000 0.875000
vt 0.750000 0.125000
vt 1.000000 0.125000
vt 1.000000 0.875000
vt 0.750000 0.875000
vt 0.750000 0.125000
vt 1.000000 0.125000
vt 1.000000 0.875000
vt 0.750000 0.750000
vt 0.875000 0.750000
vt 0.875000 0.875000
vt 0.750000 0.750000
vt 0.875000 0.750000
vt 0.875000 0.875000
vt 0.750000 0.875000
vt 0.750000 0.875000
vt 0.750000 0.125000
vt 1.000000 0.125000
vt 1.000000 0.875000
vt 0.750000 0.875000
vt 0.750000 0.125000
vt 1.000000 0.125000
vt 1.000000 0.875000
vt 0.750000 0.875000
vt 0.750000 0.125000
vt 1.000000 0.125000
vt 1.000000 0.875000
vt 0.750000 0.875000
vt 0.750000 0.125000
vt 1.000000 0.125000
vt 1.000000 0.875000
vt 0.750000 0.750000
vt 0.875000 0.750000
vt 0.875000 0.875000
vt 0.750000 0.750000
vt 0.875000 0.750000
vt 0.875000 0.875000
vt 0.750000 0.875000
vt 0.750000 0.875000
vt 0.750000 0.125000
vt 1.000000 0.125000
vt 1.000000 0.875000
vt 0.750000 0.875000
vt 0.750000 0.125000
vt 1.000000 0.125000
vt 1.000000 0.875000
vt 0.750000 0.875000
vt 0.750000 0.125000
vt 1.000000 0.125000
vt 1.000000 0.875000
vt 0.750000 0.875000
vt 0.750000 0.125000
vt 1.000000 0.125000
vt 1.000000 0.875000
vt 0.750000 0.750000
vt 0.875000 0.750000
vt 0.875000 0.875000
vt 0.750000 0.750000
vt 0.875000 0.750000
vt 0.875000 0.875000
vt 0.750000 0.875000
vt 0.062500 0.062500
vt 0.875000 0.125000
vt 0.125000 0.125000
vt 0.000000 1.000000
vt 0.062500 0.937500
vt 0.000000 0.000000
vt 0.875000 0.875000
vt 0.125000 0.875000
vt 1.000000 0.875000
vt 0.750000 0.875000
vt 0.750000 0.125000
vt 1.000000 0.125000
vt 1.000000 0.875000
vt 0.750000 0.875000
vt 0.750000 0.125000
vt 1.000000 0.125000
vt 0.875000 0.875000
vt 0.750000 0.875000
vt 0.750000 0.750000
vt 0.875000 0.750000
vt 1.000000 0.875000
vt 0.750000 0.875000
vt 0.750000 0.125000
vt 1.000000 0.125000
vt 0.750000 0.750000
vt 0.875000 0.750000
vt 0.875000 0.875000
vt 0.750000 0.875000
vt 0.750000 0.750000
vt 0.875000 0.750000
vt 0.875000 0.875000
vt 0.625000 0.812500
vt 0.625000 0.437500
vt 1.000000 0.437500
vt 1.000000 0.812500
vt 0.625000 0.812500
vt 0.625000 0.437500
vt 1.000000 0.437500
vt 1.000000 0.812500
vt 0.625000 0.812500
vt 0.625000 0.437500
vt 1.000000 0.437500
vt 1.000000 0.812500
vt 0.625000 0.812500
vt 0.625000 0.437500
vt 1.000000 0.437500
vt 1.000000 0.812500
vt 0.625000 0.625000
vt 0.875000 0.625000
vt 0.875000 0.875000
vt 0.625000 0.875000
vt 0.625000 0.625000
vt 0.875000 0.625000
vt 0.875000 0.875000
vt 0.625000 0.875000
vt 0.625000 0.812500
vt 0.625000 0.437500
vt 1.000000 0.437500
vt 1.000000 0.812500
vt 0.625000 0.812500
vt 0.625000 0.437500
vt 1.000000 0.437500
vt 1.000000 0.812500
vt 0.625000 0.812500
vt 0.625000 0.437500
vt 1.000000 0.437500
vt 1.000000 0.812500
vt 0.625000 0.812500
vt 0.625000 0.437500
vt 1.000000 0.437500
vt 1.000000 0.812500
vt 0.625000 0.625000
vt 0.875000 0.625000
vt 0.875000 0.875000
vt 0.625000 0.875000
vt 0.625000 0.625000
vt 0.875000 0.625000
vt 0.875000 0.875000
vt 0.625000 0.875000
vt 0.000000 0.375000
vt 0.000000 0.312500
vt 0.437500 0.312500
vt 0.437500 0.375000
vt 0.000000 0.375000
vt 0.000000 0.312500
vt 0.437500 0.312500
vt 0.437500 0.375000
vt 0.000000 0.375000
vt 0.000000 0.312500
vt 0.437500 0.312500
vt 0.437500 0.375000
vt 0.000000 0.375000
vt 0.000000 0.312500
vt 0.437500 0.312500
vt 0.437500 0.375000
vt 0.625000 0.625000
vt 0.875000 0.625000
vt 0.875000 0.875000
vt 0.625000 0.875000
vt 0.625000 0.625000
vt 0.875000 0.625000
vt 0.875000 0.875000
vt 0.625000 0.875000
vt 0.625000 0.812500
vt 0.625000 0.437500
vt 1.000000 0.437500
vt 1.000000 0.812500
vt 0.625000 0.812500
vt 0.625000 0.437500
vt 1.000000 0.437500
vt 1.000000 0.812500
vt 0.625000 0.812500
vt 0.625000 0.437500
vt 1.000000 0.437500
vt 1.000000 0.812500
vt 0.625000 0.812500
vt 0.625000 0.437500
vt 1.000000 0.437500
vt 1.000000 0.812500
vt 0.625000 0.625000
vt 0.875000 0.625000
vt 0.875000 0.875000
vt 0.625000 0.875000
vt 0.625000 0.625000
vt 0.875000 0.625000
vt 0.875000 0.875000
vt 0.625000 0.875000
vt 1.000000 0.812500
vt 0.625000 0.812500
vt 0.625000 0.437500
vt 1.000000 0.437500
vt 0.625000 0.625000
vt 0.875000 0.625000
vt 0.875000 0.875000
vt 0.625000 0.875000
vt 1.000000 0.812500
vt 0.625000 0.812500
vt 0.625000 0.437500
vt 1.000000 0.437500
vt 0.625000 0.625000
vt 0.875000 0.625000
vt 0.875000 0.875000
vt 0.625000 0.875000
vt 1.000000 0.812500
vt 0.625000 0.812500
vt 0.625000 0.437500
vt 1.000000 0.437500
vt 1.000000 0.812500
vt 0.625000 0.812500
vt 0.625000 0.437500
vt 1.000000 0.437500
vt 0.625000 0.812500
vt 0.625000 0.437500
vt 1.000000 0.437500
vt 1.000000 0.812500
vt 0.625000 0.812500
vt 0.625000 0.437500
vt 1.000000 0.437500
vt 1.000000 0.812500
vt 0.625000 0.812500
vt 0.625000 0.437500
vt 1.000000 0.437500
vt 1.000000 0.812500
vt 0.625000 0.812500
vt 0.625000 0.437500
vt 1.000000 0.437500
vt 1.000000 0.812500
vt 0.625000 0.625000
vt 0.875000 0.625000
vt 0.875000 0.875000
vt 0.625000 0.875000
vt 0.250000 0.437500
vt 0.250000 0.250000
vt 0.437500 0.250000
vt 0.437500 0.437500
vt -0.000000 0.875000
vt -0.000000 0.500000
vt 1.000000 0.500000
vt 1.000000 0.875000
vt -0.000000 0.875000
vt -0.000000 0.500000
vt 1.000000 0.500000
vt 1.000000 0.875000
vt -0.000000 0.875000
vt -0.000000 0.500000
vt 1.000000 0.500000
vt 1.000000 0.875000
vt -0.000000 0.875000
vt -0.000000 0.500000
vt 1.000000 0.500000
vt 1.000000 0.875000
vn -1.0000 0.0000 0.0000
vn 0.0000 0.0000 -1.0000
vn 1.0000 0.0000 0.0000
vn 0.0000 0.0000 1.0000
vn 0.0000 -1.0000 0.0000
vn 0.0000 1.0000 0.0000
vn 0.0000 0.9949 0.1010
vn 0.0000 0.4604 0.8877
vn 0.0000 -0.4506 -0.8927
vn 0.0000 -0.9988 -0.0500
vn 0.0000 0.3110 -0.9504
vn 0.0000 0.8607 -0.5091
vn 0.0000 -0.8585 0.5129
vn 0.0000 -0.9998 -0.0218
vn 0.0000 -0.3001 0.9539
vn 0.0000 0.8262 0.5634
vn -0.5634 0.8262 0.0000
vn 0.5634 0.8262 0.0000
vn 0.0000 0.8262 -0.5634
vn 0.0000 -0.5288 -0.8487
vn 0.0000 0.5288 0.8487
vn 0.0000 -0.8740 0.4859
vn 0.0000 0.8740 -0.4859
usemtl Material
s off
f 129/1/1 2/2/1 4/3/1 130/4/1
f 130/5/2 4/6/2 8/7/2 131/8/2
f 131/9/3 8/10/3 6/11/3 132/12/3
f 132/13/4 6/14/4 2/15/4 129/16/4
f 3/17/5 7/18/5 5/19/5 1/20/5
f 4/21/6 2/22/6 65/23/6 66/24/6
f 9/25/1 10/26/1 12/27/1 11/28/1
f 11/29/2 12/30/2 16/31/2 15/32/2
f 15/33/3 16/34/3 14/35/3 13/36/3
f 13/37/4 14/38/4 10/39/4 9/40/4
f 11/41/5 15/42/5 13/43/5 9/44/5
f 14/45/3 16/46/3 19/47/3 20/48/3
f 17/49/7 20/50/7 24/51/7 21/52/7
f 12/53/1 10/54/1 17/55/1 18/56/1
f 10/57/8 14/58/8 20/59/8 17/60/8
f 16/61/9 12/62/9 18/63/9 19/64/9
f 24/65/3 23/66/3 27/67/3 28/68/3
f 19/69/10 18/70/10 22/71/10 23/72/10
f 20/73/3 19/74/3 23/75/3 24/76/3
f 18/77/1 17/78/1 21/79/1 22/80/1
f 25/81/11 28/82/11 32/83/11 29/84/11
f 22/85/1 21/86/1 25/87/1 26/88/1
f 21/89/12 24/90/12 28/91/12 25/92/12
f 23/93/13 22/94/13 26/95/13 27/96/13
f 31/97/14 30/98/14 29/99/14 32/100/14
f 27/101/15 26/102/15 30/103/15 31/104/15
f 28/105/3 27/106/3 31/107/3 32/108/3
f 26/109/1 25/110/1 29/111/1 30/112/1
f 33/113/1 34/114/1 36/115/1 35/116/1
f 35/117/2 36/118/2 40/119/2 39/120/2
f 39/121/3 40/122/3 38/123/3 37/124/3
f 37/125/4 38/126/4 34/127/4 33/128/4
f 35/117/5 39/129/5 37/130/5 33/128/5
f 40/131/6 36/132/6 34/133/6 38/134/6
f 41/135/1 42/136/1 44/137/1 43/138/1
f 43/139/2 44/140/2 48/141/2 47/142/2
f 47/143/3 48/144/3 46/145/3 45/146/3
f 45/147/4 46/148/4 42/149/4 41/150/4
f 43/151/5 47/152/5 45/153/5 41/135/5
f 48/154/6 44/155/6 42/156/6 46/157/6
f 49/158/1 50/159/1 52/160/1 51/161/1
f 51/162/2 52/163/2 56/164/2 55/165/2
f 55/166/3 56/167/3 54/168/3 53/169/3
f 53/170/4 54/171/4 50/172/4 49/173/4
f 51/174/5 55/175/5 53/176/5 49/158/5
f 56/177/6 52/178/6 50/179/6 54/180/6
f 57/181/1 58/182/1 60/183/1 59/184/1
f 59/185/2 60/186/2 64/187/2 63/188/2
f 63/189/3 64/190/3 62/191/3 61/192/3
f 61/193/4 62/194/4 58/195/4 57/196/4
f 59/197/5 63/198/5 61/199/5 57/181/5
f 64/200/6 60/201/6 58/202/6 62/203/6
f 67/204/16 66/24/16 70/205/16 71/206/16
f 2/22/6 6/207/6 68/208/6 65/23/6
f 8/209/6 4/21/6 66/24/6 67/204/6
f 6/207/6 8/209/6 67/204/6 68/208/6
f 71/206/6 70/205/6 69/210/6 72/211/6
f 68/208/17 67/204/17 71/206/17 72/211/17
f 66/24/18 65/23/18 69/210/18 70/205/18
f 65/23/19 68/208/19 72/211/19 69/210/19
f 73/212/1 74/213/1 76/214/1 75/215/1
f 75/216/2 76/217/2 80/218/2 79/219/2
f 79/220/3 80/221/3 78/222/3 77/223/3
f 77/224/4 78/225/4 74/226/4 73/227/4
f 75/228/5 79/229/5 77/230/5 73/231/5
f 80/232/6 76/233/6 74/234/6 78/225/6
f 81/235/1 82/236/1 84/237/1 83/238/1
f 83/239/2 84/240/2 88/241/2 87/242/2
f 87/243/3 88/244/3 86/245/3 85/246/3
f 85/247/4 86/248/4 82/249/4 81/250/4
f 83/251/5 87/252/5 85/253/5 81/254/5
f 88/255/6 84/256/6 82/257/6 86/258/6
f 89/259/1 90/260/1 92/261/1 91/262/1
f 91/263/2 92/264/2 96/265/2 95/266/2
f 95/267/3 96/268/3 94/269/3 93/270/3
f 93/271/4 94/272/4 90/273/4 89/274/4
f 91/275/5 95/276/5 93/277/5 89/278/5
f 96/279/6 92/280/6 90/281/6 94/282/6
f 97/283/1 98/284/1 100/285/1 99/286/1
f 99/287/2 100/288/2 104/289/2 103/290/2
f 103/291/3 104/292/3 102/293/3 101/294/3
f 101/295/4 102/296/4 98/297/4 97/298/4
f 99/299/5 103/300/5 101/301/5 97/302/5
f 104/303/6 100/304/6 98/305/6 102/306/6
f 105/307/1 106/308/1 108/309/1 107/310/1
f 107/311/2 108/312/2 112/313/2 111/314/2
f 111/315/3 112/316/3 110/317/3 109/318/3
f 109/319/4 110/320/4 106/321/4 105/322/4
f 107/323/5 111/324/5 109/325/5 105/326/5
f 112/327/6 108/328/6 106/329/6 110/330/6
f 113/331/1 114/332/1 116/333/1 115/334/1
f 115/335/2 116/336/2 120/337/2 119/338/2
f 119/339/3 120/340/3 118/341/3 117/342/3
f 117/343/4 118/344/4 114/345/4 113/346/4
f 115/347/5 119/348/5 117/349/5 113/350/5
f 120/351/6 116/352/6 114/353/6 118/354/6
f 121/355/1 122/356/1 124/357/1 123/358/1
f 123/359/20 124/360/20 128/361/20 127/362/20
f 127/363/3 128/364/3 126/365/3 125/366/3
f 125/367/21 126/368/21 122/369/21 121/370/21
f 123/371/22 127/372/22 125/373/22 121/374/22
f 128/375/23 124/376/23 122/377/23 126/378/23
f 5/379/4 132/380/4 129/381/4 1/382/4
f 7/383/3 131/384/3 132/385/3 5/386/3
f 3/387/2 130/388/2 131/389/2 7/390/2
f 1/391/1 129/392/1 130/393/1 3/394/1
