# Blender v2.79 (sub 0) OBJ File: 'mast01.blend'
# www.blender.org
mtllib mast01.mtl
o Cube
v 0.500000 0.000000 -0.500000
v 0.500000 0.000000 0.500000
v -0.500000 0.000000 0.500000
v -0.500000 0.000000 -0.500000
v 0.500000 50.000000 -0.500000
v 0.500000 50.000000 0.500000
v -0.500000 50.000000 0.500000
v -0.500000 50.000000 -0.500000
v 0.500000 4.000000 -0.500000
v 0.500000 4.000000 0.500000
v -0.500000 4.000000 0.500000
v -0.500000 4.000000 -0.500000
v 0.500000 4.950001 -0.500000
v 0.500000 4.950001 0.500000
v -0.500000 4.950001 0.500000
v -0.500000 4.950001 -0.500000
v 0.500003 4.000001 -20.000000
v -0.499997 4.000001 -20.000000
v 0.500003 4.950002 -20.000000
v -0.499997 4.950002 -20.000000
vt -3.450000 2.532095
vt -3.344595 2.532095
vt -3.344595 2.637500
vt -3.450000 2.637500
vt 0.239189 2.431959
vt 0.344594 2.431959
vt 0.344594 2.537365
vt 0.239189 2.537365
vt 0.028377 1.904932
vt 0.028377 -1.262500
vt 0.133782 -1.262500
vt 0.133783 1.904932
vt 0.239188 -1.262500
vt 0.239188 1.904932
vt -3.450000 1.904932
vt -3.450000 -1.262500
vt -3.344595 -1.262500
vt -3.344594 1.904932
vt 0.344594 1.904932
vt 0.344594 2.431959
vt 0.239189 2.431960
vt 0.239189 1.904932
vt 0.450000 2.110473
vt 0.344594 2.110473
vt 0.344594 0.423986
vt 0.450000 0.423986
vt -3.449999 2.532095
vt -3.449999 2.005067
vt -3.344594 2.005067
vt -3.344594 2.532095
vt 0.133783 2.532095
vt 0.133783 2.005067
vt 0.239188 2.005067
vt 0.239188 2.532095
vt 0.028377 2.532095
vt 0.028377 2.005067
vt 0.344594 -1.262500
vt 0.344594 1.904932
vt 0.239189 1.904932
vt 0.239189 -1.262500
vt 0.444730 2.215878
vt 0.344594 2.215878
vt 0.344594 2.110473
vt 0.444730 2.110473
vt -1.658108 2.005067
vt -1.658108 1.904932
vt 0.450000 0.423986
vt 0.344595 0.423986
vt 0.344594 -1.262500
vt 0.450000 -1.262500
vt -1.658108 1.904932
vt -1.658108 2.005067
vn 0.0000 -1.0000 0.0000
vn 0.0000 1.0000 0.0000
vn 1.0000 -0.0000 0.0000
vn -0.0000 -0.0000 1.0000
vn -1.0000 0.0000 -0.0000
vn 0.0000 0.0000 -1.0000
usemtl Material
s off
f 1/1/1 2/2/1 3/3/1 4/4/1
f 5/5/2 8/6/2 7/7/2 6/8/2
f 13/9/3 5/10/3 6/11/3 14/12/3
f 14/12/4 6/11/4 7/13/4 15/14/4
f 15/15/5 7/16/5 8/17/5 16/18/5
f 9/19/6 1/20/6 4/21/6 12/22/6
f 16/23/2 13/24/2 19/25/2 20/26/2
f 3/27/5 11/28/5 12/29/5 4/30/5
f 2/31/4 10/32/4 11/33/4 3/34/4
f 1/35/3 9/36/3 10/32/3 2/31/3
f 5/37/6 13/38/6 16/39/6 8/40/6
f 11/28/5 15/15/5 16/18/5 12/29/5
f 10/32/4 14/12/4 15/14/4 11/33/4
f 9/36/3 13/9/3 14/12/3 10/32/3
f 19/41/6 17/42/6 18/43/6 20/44/6
f 13/9/3 9/36/3 17/45/3 19/46/3
f 9/47/1 12/48/1 18/49/1 17/50/1
f 12/29/5 16/18/5 20/51/5 18/52/5
