# Blender v2.79 (sub 0) OBJ File: 'rudder.blend'
# www.blender.org
mtllib rudder.mtl
o Cube.001
v -0.250000 6.150000 0.399997
v -0.250000 6.650000 0.399997
v -0.250000 6.150000 -0.600003
v -0.250000 6.650000 -0.600003
v 0.250000 6.150000 0.399997
v 0.250000 6.650000 0.399997
v 0.250000 6.150000 -0.600003
v 0.250000 6.650000 -0.600003
v -0.250000 6.150000 9.999997
v -0.250000 6.650000 9.999997
v 0.250000 6.650000 9.999997
v 0.250000 6.150000 9.999997
v -0.250000 -5.700001 -0.600003
v -0.250000 -5.700001 0.399997
v 0.250000 -5.700001 -0.600003
v 0.250000 -5.700001 0.399997
v -0.250000 1.410000 0.399997
v 0.250000 1.410000 0.399997
v 0.250000 1.410000 -0.600003
v -0.250000 1.410000 -0.600003
v 0.250000 -5.700001 -6.745001
v -0.250000 -5.700001 -6.745001
v 0.250000 1.410000 -6.745001
v -0.250000 1.410000 -6.745001
vt 0.026413 1.292075
vt 0.026413 1.347085
vt 0.136432 1.347085
vt 0.136432 1.292075
vt 1.076236 0.833264
vt 1.034992 0.833264
vt 1.034992 0.792021
vt 1.076236 0.792021
vt 0.136432 1.292075
vt 0.136432 1.347085
vt 0.026413 1.347085
vt 0.026413 1.292075
vt -0.672484 0.833257
vt -0.672484 0.792014
vt 0.119390 0.792015
vt 0.119390 0.833259
vt -1.063472 0.792013
vt -1.063472 0.833256
vt -1.649956 0.833255
vt -1.649956 0.792011
vt 0.952505 0.833264
vt 0.952505 0.792020
vt 0.160634 0.792015
vt 0.160634 0.833259
vt -1.029770 1.347085
vt -1.029770 1.292075
vt -1.029770 1.292075
vt -1.029770 1.347085
vt 3.067468 0.833281
vt 3.067468 0.792038
vt 3.149955 0.792038
vt 3.149956 0.833282
vt 2.560585 0.833277
vt 2.560585 0.792034
vt 0.026413 0.770585
vt 0.136432 0.770585
vt 0.136432 -0.011651
vt 0.026413 -0.011651
vt 0.136432 0.770585
vt 0.026413 0.770585
vt 0.026413 -0.011651
vt 0.136432 -0.011651
vt 1.467223 0.792025
vt 1.467222 0.833269
vt 1.974104 0.833273
vt 1.974104 0.792030
vt 0.812500 -0.011651
vt 0.812500 0.770585
vt 0.812500 0.770585
vt 0.812500 -0.011651
vn -1.0000 0.0000 0.0000
vn 0.0000 0.0000 -1.0000
vn 1.0000 0.0000 0.0000
vn 0.0000 -1.0000 0.0000
vn 0.0000 0.0000 1.0000
vn 0.0000 1.0000 0.0000
usemtl None
s off
f 1/1/1 2/2/1 4/3/1 3/4/1
f 3/5/2 4/6/2 8/7/2 7/8/2
f 7/9/3 8/10/3 6/11/3 5/12/3
f 1/13/4 5/14/4 12/15/4 9/16/4
f 18/17/5 17/18/5 14/19/5 16/20/5
f 8/7/6 4/6/6 2/21/6 6/22/6
f 12/15/5 11/23/5 10/24/5 9/16/5
f 6/22/6 2/21/6 10/24/6 11/23/6
f 5/12/3 6/11/3 11/25/3 12/26/3
f 2/2/1 1/1/1 9/27/1 10/28/1
f 13/29/4 15/30/4 16/31/4 14/32/4
f 15/30/4 13/29/4 22/33/4 21/34/4
f 17/35/1 20/36/1 13/37/1 14/38/1
f 19/39/3 18/40/3 16/41/3 15/42/3
f 7/9/3 5/12/3 18/40/3 19/39/3
f 1/1/1 3/4/1 20/36/1 17/35/1
f 3/5/2 7/8/2 19/43/2 20/44/2
f 5/14/5 1/13/5 17/18/5 18/17/5
f 24/45/2 23/46/2 21/34/2 22/33/2
f 19/39/3 15/42/3 21/47/3 23/48/3
f 13/37/1 20/36/1 24/49/1 22/50/1
f 20/44/6 19/43/6 23/46/6 24/45/6
